# xmcd
#
# Track frame offsets:
#	150
#	23209
#	41997
#	55807
#	71841
#	72293
#	91996
#	109415
#	126859
#	144137
#	162990
#	172214
#	192683
#	218085
#	242618
#	262946
#
# Disc length: 3771
#
# Revision: 3
# Processed by: cddbd v1.5.1PL0 Copyright (c) Steve Scherf et al.
# Submitted via: EZCDDA 4.3.2
# Normalized: r2:TDELIM( - )
#
DISCID=f30eb910
DTITLE=Nuevo intérprete - Nuevo título
DYEAR=1900
DGENRE=
TTITLE0=alicia keys - A WOMAN'S WORLD
TTITLE1=alicia keys - Alicia Keys Songs In A Minor 13 Butterflyz
TTITLE2=alicia keys - Caged Bird#
TTITLE3=alicia keys - fallin by alicia keys
TTITLE4=alicia keys - Girlfriend (feat. Jermaine Dupri)
TTITLE5=alicia keys - Goodbey
TTITLE6=alicia keys - How Come You Don't Call Me (1)
TTITLE7=alicia keys - Jane Doe!
TTITLE8=alicia keys - Loving You2
TTITLE9=alicia keys - MAN
TTITLE10=alicia keys - never felt this way $
TTITLE11=Alicia Keys - Piano and I (1)
TTITLE12=alicia keys - Rock With Me
TTITLE13=Alicia Keys - Songs In A Minor - 10 - The Life
TTITLE14=alicia keys - Troubles!
TTITLE15=alicia keys - why do i fel so bad
EXTD=
EXTT0=
EXTT1=
EXTT2=
EXTT3=
EXTT4=
EXTT5=
EXTT6=
EXTT7=
EXTT8=
EXTT9=
EXTT10=
EXTT11=
EXTT12=
EXTT13=
EXTT14=
EXTT15=
PLAYORDER=
